<svg id="Calque_1" data-name="Calque 1" xmlns="http://www.w3.org/2000/svg" viewBox="0 0 216.79 55.68"><defs><style>.cls-1,.cls-2{fill:#e7b0be;}.cls-1{fill-rule:evenodd;}.cls-3,.cls-4{fill:#e8b1be;stroke-miterlimit:10;stroke-width:0.5px;}.cls-3{stroke:#e8b1be;}.cls-4{stroke:#e7b0be;}</style></defs><title>banniere-new-chatterie-1</title><path class="cls-1" d="M195.2,14c-5.2,3.2-10.5,8-7.6,14.6l.8,1.6-1.2-1.4c-4.1-6,1.9-13,8-14.8Zm19.1,13.7c1.2-6.4-1.4-11.5-7.3-14l-2.2-.9c4.6.6,8.3,2.3,9.8,7.1a9.24,9.24,0,0,1-.3,7.8Zm-19.4,7.2c3,1.3,6.4,3.6,9.5,1,2.1-1.8,0-.3,2.8-2.1h0c-.5.6-2.3,2.7-2.8,3.2C201,39.7,197.5,37.2,194.9,34.9Z" transform="translate(-144.7 -2.77)"/><path class="cls-1" d="M194.8,11.3c4.1-2.4,6-2.1,10.2-.4A35,35,0,0,0,194.8,11.3Z" transform="translate(-144.7 -2.77)"/><path class="cls-1" d="M195.2,12.8c-1.4-1.8-6.5-7.7-9.4-6.9-2.4.6.2,12.9.5,14.9C185,17.5,179.9.6,189,5.8A15.62,15.62,0,0,1,195.2,12.8Z" transform="translate(-144.7 -2.77)"/><path class="cls-1" d="M204.9,11.9c1-2.5,4.6-9.6,8.3-9.1,4.4.6,2.3,12,1.5,14.6l.1-1.8C215.6,2.6,213.4-1,204.9,11.9Z" transform="translate(-144.7 -2.77)"/><path class="cls-1" d="M214.1,29.5c.6,5.6,3.6,15-.3,20-1.6,2.1-4.5.4-6.2,1.3.8-1.5,4.5.4,5.8-2C216.5,42.8,213.6,35.7,214.1,29.5Z" transform="translate(-144.7 -2.77)"/><path class="cls-1" d="M204.6,44c5.2.5,5.1,9.5.3,8-2.2-.7-1.7-3.1-.4-4.7a4.92,4.92,0,0,0-.6,2.9C204.9,54.2,212.1,47.9,204.6,44Z" transform="translate(-144.7 -2.77)"/><path class="cls-1" d="M201.2,46.3c-1.2,2.6-1.5,5.4,2,5.3h.9C198.9,54,198.8,47.7,201.2,46.3Z" transform="translate(-144.7 -2.77)"/><path class="cls-1" d="M208.4,43.4c-5.1-.6-9.7-1.3-10.6,5.3-.3,2.2.7,2.6,2.5,2.8-2.3.7-3.4-.6-3.3-2.9C197.5,41.2,203,41.5,208.4,43.4Z" transform="translate(-144.7 -2.77)"/><path class="cls-1" d="M187.5,32.4c.6,3.8-9.3,9.7-12.2,13.1-.1-.1-.1-.1,0-.2C175.8,42,185.5,37.1,187.5,32.4Z" transform="translate(-144.7 -2.77)"/><path class="cls-1" d="M175.3,45.8c-.6,1.1-2.2,5.2.6,4.8a2.31,2.31,0,0,0,1.7-2.5,2.13,2.13,0,0,1-.4,2.4C174.9,53.5,171.3,48.9,175.3,45.8Z" transform="translate(-144.7 -2.77)"/><path class="cls-1" d="M180.6,46.6c2.6,1.2,1.7,7.2-3.3,4.4h0l.9.1C181.5,51.4,182,49.1,180.6,46.6Z" transform="translate(-144.7 -2.77)"/><path class="cls-1" d="M181.6,51c8,.1,6.5-8.3,1.3-9.1l-1.1-.1a4.38,4.38,0,0,1,4.1.8C190.6,46.5,186.4,52.9,181.6,51Z" transform="translate(-144.7 -2.77)"/><path class="cls-1" d="M197.2,50.6c-4.5,1.2-5.6.9-9.6-1.3A26.24,26.24,0,0,0,197.2,50.6Z" transform="translate(-144.7 -2.77)"/><path class="cls-1" d="M171.9,41.8c-5.3.9-6.8,1.3-12.4,1.3-2.6,0-10.4,0-12.2,1.1-2.2,1.3-3,2.9-.8,4.3-2.5-.5-2.1-2.6-.6-4.1,2.7-2.8,11.3-2.3,15.2-2.1C165.3,42.4,167.9,41.7,171.9,41.8Z" transform="translate(-144.7 -2.77)"/><path class="cls-1" d="M147.8,45.3c-2.3,2.6-.4,3.3,1.9,3.9C144.6,50.4,145.9,45.2,147.8,45.3Z" transform="translate(-144.7 -2.77)"/><path class="cls-1" d="M150.4,45.9c-1.8,3.3.5,4.4,3.7,3.6,7.5-1.9,10.9-1,18.5-1.2h.9a16.91,16.91,0,0,1-4.5.7c-6,.4-8.6.1-14.7,1.3C148.4,51.4,148.7,46.9,150.4,45.9Z" transform="translate(-144.7 -2.77)"/><path class="cls-1" d="M152.2,42.7c5.6-4.7,16.4-11,23.2-13a60.92,60.92,0,0,0,10-3.9,33.09,33.09,0,0,1-9.8,4.8C168,33.1,159.3,38.8,152.2,42.7Z" transform="translate(-144.7 -2.77)"/><path class="cls-1" d="M149.8,42.9c-5.4-1.2-2.1-11.1.9-9.9,2.2.9-2.6,4.3.2,7.2.9.9,2.3,1,3.5,1.1a4.17,4.17,0,0,1-2.7.1c-4.2-1.2-1.9-6.5-1.5-7.3C148.8,34.3,145.5,39.5,149.8,42.9Z" transform="translate(-144.7 -2.77)"/><path class="cls-1" d="M212.1,13.7c-2.2-.7-4.3-3.4-2.4-5.5l1.9-1.9.9-.8C210.8,10,208,9,212.1,13.7Z" transform="translate(-144.7 -2.77)"/><path class="cls-1" d="M188.7,16.2c4.5-7.6-.4-3.9-2.6-9.1l.4.3,1,.8c1.1.9,3.3,1.8,3.7,2.3C192.6,12.5,189.9,15.2,188.7,16.2Z" transform="translate(-144.7 -2.77)"/><path class="cls-1" d="M201.2,29.7c1.3-.1,2.6.2,2.1.7s-.9.1-1.2.6c-.1.2.1,1.3-.9,1.4-.7.1-.6-.8-1-1.2s-.7,0-1.1-.4S200.1,29.8,201.2,29.7Z" transform="translate(-144.7 -2.77)"/><path class="cls-1" d="M198.3,33.8c1.7.3,2.5.2,3.1-1.5C201.8,33.8,200.2,35.1,198.3,33.8Z" transform="translate(-144.7 -2.77)"/><path class="cls-1" d="M204.7,33.2a1.79,1.79,0,0,1-3.4-.9C202.3,34,203.1,34,204.7,33.2Z" transform="translate(-144.7 -2.77)"/><path class="cls-1" d="M208,21.6c1.8,5-2.8,4.6-4.4,4.3C203.1,24.4,203.8,20.4,208,21.6Z" transform="translate(-144.7 -2.77)"/><path class="cls-1" d="M198,26.3c.1-2-1.4-5.6-5.1-3.5C192.2,27.8,196.7,27,198,26.3Z" transform="translate(-144.7 -2.77)"/><ellipse class="cls-2" cx="50.5" cy="21.63" rx="1.9" ry="2"/><path class="cls-1" d="M195.1,23c.3,0,.6.6.7,1.4s-.1,1.5-.4,1.5-.6-.6-.7-1.4S194.8,23,195.1,23Z" transform="translate(-144.7 -2.77)"/><path class="cls-1" d="M195.6,24.5a.6.6,0,1,0-.6-.6A.58.58,0,0,0,195.6,24.5Z" transform="translate(-144.7 -2.77)"/><ellipse class="cls-2" cx="61.4" cy="20.93" rx="1.9" ry="2"/><path class="cls-1" d="M205.9,22.1c.3,0,.6.6.7,1.4s-.1,1.5-.4,1.5-.6-.6-.7-1.4S205.6,22.2,205.9,22.1Z" transform="translate(-144.7 -2.77)"/><path class="cls-1" d="M206.4,23.6a.6.6,0,1,0-.6-.6C205.9,23.3,206.1,23.6,206.4,23.6Z" transform="translate(-144.7 -2.77)"/><path class="cls-1" d="M208.7,33.1v-.5a23.39,23.39,0,0,1,3.4,1.6h0c-1.5-.5-2.5-.9-3.4-1.1Zm0-1.4v-.5a19.21,19.21,0,0,1,4.9,1,27.46,27.46,0,0,0-4.9-.5Zm0-1.4v-.5a23.15,23.15,0,0,1,10-1.4,36.19,36.19,0,0,0-10,1.9Zm0-.9a10.66,10.66,0,0,0,4.2-3.8,15.58,15.58,0,0,1-4.2,3.2ZM198.1,31a16.17,16.17,0,0,1-3.2-.2v-.4c.9.2,1.9.4,3.2.6Zm10.6-2.1v.5a22.84,22.84,0,0,1-4.6,1.4c1.9-.8,3.3-1.3,4.6-1.9Zm0,.9c-1.7.6-3.3,1.2-4.9,1.9,1.7-.4,3.3-.9,4.9-1.4v-.5Zm0,1.4v.5a30.91,30.91,0,0,0-5,.6,14.18,14.18,0,0,1,5-1.1Zm0,1.4c-1.3-.4-2.5-.3-4.7.2a16,16,0,0,1,4.7.3v-.5ZM194.9,34v-.5a9.55,9.55,0,0,1,3.8-.1,27.7,27.7,0,0,0-3.8.6Zm0-1.1v-.5a29.06,29.06,0,0,1,4,.3c-1.6,0-2.8.1-4,.2Zm0-1.2v-.5c1.5.2,2.9.5,4.3.8Zm0-.9a10.26,10.26,0,0,1-6.3-3.6,14.52,14.52,0,0,0,6.3,3.2v.4Zm0,.4c-3.4-.4-7-.4-9.9.9,3.2-.9,6.6-.7,9.9-.5v-.4Zm0,1.2v.5a18.26,18.26,0,0,0-6.3,1.6,11.29,11.29,0,0,1,6.3-2.1Zm0,1.1a6.66,6.66,0,0,0-3.8,2.4,13.45,13.45,0,0,1,3.8-1.9Z" transform="translate(-144.7 -2.77)"/><path class="cls-1" d="M202.7,25.1c-.3-3.7,1.5-8.4,5.3-9.2-3.6,1.8-4.9,5.3-5.3,9.2Zm-3.8-.7c-.7-3.3-2.5-6.4-5.9-7.3C196.6,17,199,21.1,198.9,24.4Z" transform="translate(-144.7 -2.77)"/><path class="cls-3" d="M243.9,17.5a15.42,15.42,0,0,1-2.7,3.6,32.83,32.83,0,0,1-3.4,3.1c-1.3.9-2.4,1.6-3.4,2.2a13.17,13.17,0,0,1,4.9.1,9.89,9.89,0,0,1,4.3,2.4,8.2,8.2,0,0,1,3.5,5.1,8.32,8.32,0,0,1-1,5.3,15.21,15.21,0,0,1-3.9,4.6,19.92,19.92,0,0,1-5.1,3.1,23.87,23.87,0,0,1-8.7,1.9q-4.5.15-9,0c-.2-2.8-.3-5.8-.3-8.8V30.8c0-3.1.1-6.2.2-9.3s.2-6,.4-8.8a15.12,15.12,0,0,0-1.6.9c-.3.2-.8.6-1.6,1.1l-.6-2.4a2.88,2.88,0,0,1,1.4-1.2,24,24,0,0,1,2.3-1.1c.9-.4,2.2-.9,3.8-1.5a37.11,37.11,0,0,1,5.3-1.4,36.78,36.78,0,0,1,5.8-.7,18.39,18.39,0,0,1,5.4.5,7.69,7.69,0,0,1,3.9,2.3,6.51,6.51,0,0,1,1.4,4.6A8.69,8.69,0,0,1,243.9,17.5Zm-4.2,11.4a6.56,6.56,0,0,0-4.2-1,33.19,33.19,0,0,0-6.8,1.1c-2.3.6-4.6,1.3-6.8,1.9q.15,4.05,0,7.8a68.68,68.68,0,0,0,.3,7.8c.9.2,1.7.4,2.5.5a19.48,19.48,0,0,0,2.5.2,22.39,22.39,0,0,0,5.7-.8,16.43,16.43,0,0,0,5.2-2.4,20.91,20.91,0,0,0,2.9-2.3,14.8,14.8,0,0,0,2.2-2.9,7.73,7.73,0,0,0,.8-3.4,7.17,7.17,0,0,0-1.1-3.6A9.08,9.08,0,0,0,239.7,28.9Zm1.6-18a4.43,4.43,0,0,0-2.6-1.8,14.87,14.87,0,0,0-3.4-.6,9.88,9.88,0,0,0-3.5.2c-.9.2-1.6.3-2.2.4a16.25,16.25,0,0,0-1.9.4c-.7.2-1.4.4-2.2.7s-1.8.8-3,1.4c-.1,1.2-.2,2.6-.2,4.1s-.1,3-.1,4.6-.1,3.1-.1,4.6V29c1.5-.3,3.1-.6,4.6-1a21.81,21.81,0,0,0,4.5-1.6,34.15,34.15,0,0,0,3.6-2,18.71,18.71,0,0,0,3.5-2.8,13.12,13.12,0,0,0,2.7-3.5,9.75,9.75,0,0,0,1.2-4A6.34,6.34,0,0,0,241.3,10.9Z" transform="translate(-144.7 -2.77)"/><path class="cls-4" d="M256.8,46.8l-.4.4a6.42,6.42,0,0,1-1.3,1,3,3,0,0,1-1.5.5,2.52,2.52,0,0,1-2-.4,3.07,3.07,0,0,1-1-1.5,4.44,4.44,0,0,1-.1-2,6.79,6.79,0,0,1,.7-2,5.09,5.09,0,0,1,1.4-1.5,2.88,2.88,0,0,1,2-.5,2.92,2.92,0,0,1,.9.2.9.9,0,0,1,.6.6c.1.2,0,.5,0,.7a4.35,4.35,0,0,1-.4.7,3.74,3.74,0,0,1-.6.7l-.5.5a6.53,6.53,0,0,1-1.5,1c-.6.2-1.1.5-1.7.7a3.09,3.09,0,0,1,.2.8,2,2,0,0,0,.4.8,1.34,1.34,0,0,0,.7.6,2.22,2.22,0,0,0,.9.1,2.66,2.66,0,0,0,1.2-.3,8.79,8.79,0,0,0,1-.6,5.55,5.55,0,0,0,.8-.6,1.1,1.1,0,0,1,.6-.3C257.1,46.5,257,46.7,256.8,46.8Zm-3.3-5.3a3.13,3.13,0,0,0-1.1.9,3.29,3.29,0,0,0-.7,1.3,8.87,8.87,0,0,0-.3,1.4,5.34,5.34,0,0,0,1.4-.6,14.63,14.63,0,0,0,1.3-.9l.5-.5c.3-.3.4-.5.6-.7a1.33,1.33,0,0,0,.3-.7.37.37,0,0,0-.4-.4A2.61,2.61,0,0,0,253.5,41.5Z" transform="translate(-144.7 -2.77)"/><path class="cls-4" d="M266.5,48.5h0a1.19,1.19,0,0,1-1.3-.2,7.11,7.11,0,0,1-.4-2c-.1-.7-.2-1.3-.3-2-.3.5-.5,1-.7,1.3a7,7,0,0,1-.8,1l-.6.6a7,7,0,0,1-.9.6,4.05,4.05,0,0,1-.9.5,4.12,4.12,0,0,1-.8.3c-.5,0-.8-.1-1-.5a3.42,3.42,0,0,1-.2-1.5,5.64,5.64,0,0,1,.6-2,8.58,8.58,0,0,1,1.3-2,6.18,6.18,0,0,1,2-1.5,4.34,4.34,0,0,1,2.5-.5.22.22,0,0,1,.2.2,6.15,6.15,0,0,0,.1,1.4,5.9,5.9,0,0,0,.2,1.4c.1.8.2,1.5.3,2.2a17.42,17.42,0,0,0,.5,2.2l.4.1Zm-4.3-6.7a6.39,6.39,0,0,0-1.5,1.3,13,13,0,0,0-1,1.5,5.27,5.27,0,0,0-.5,1.5,2.43,2.43,0,0,0,0,1.2c.1.3.2.5.4.5a1.33,1.33,0,0,0,.7-.3,8.79,8.79,0,0,1,1-.6,8.74,8.74,0,0,0,1-.8c.3-.3.5-.6.7-.8a7.69,7.69,0,0,0,1-2.4,12.13,12.13,0,0,0,.1-1.8A14.58,14.58,0,0,0,262.2,41.8Z" transform="translate(-144.7 -2.77)"/><path class="cls-4" d="M275.4,48.2l-.6.4c-.3-.1-.4-.3-.6-.6a1.69,1.69,0,0,1-.3-1,3.55,3.55,0,0,1-.2-1c0-.3-.1-.6-.1-.8-.2.3-.5.6-.8,1.1a6.42,6.42,0,0,1-1,1.3,4.51,4.51,0,0,1-1.4,1,2.48,2.48,0,0,1-1.7,0c-.2,0-.3-.3-.4-.6a3.75,3.75,0,0,1-.1-1.1v-2a11,11,0,0,1,.2-1.8,3.37,3.37,0,0,1,.5-1.7,4.33,4.33,0,0,1,.5-.1c.2,0,.3,0,.4.2a2.92,2.92,0,0,1-.2.9,2.92,2.92,0,0,0-.2.9c-.1.7-.2,1.5-.3,2.2a7.94,7.94,0,0,0,.1,2.2v.2c0,.1.1.1.2.2a1.32,1.32,0,0,0,1.2-.2,7.1,7.1,0,0,0,1.3-1.2,14.31,14.31,0,0,0,1.1-1.5,6.4,6.4,0,0,0,.6-1.1,4,4,0,0,0,.3-1.5,7.57,7.57,0,0,0-.1-1.5,4.33,4.33,0,0,1,.5-.1c.2,0,.4,0,.5.2,0,.4-.1,1-.1,1.6v2.1a12.31,12.31,0,0,0,.2,2,3.2,3.2,0,0,0,.5,1.3Z" transform="translate(-144.7 -2.77)"/><path class="cls-4" d="M282.2,41.4c-.1,0-.2.1-.3.2a6.15,6.15,0,0,0-1.4.1c-.4.1-.9.2-1.4.3v4a3.75,3.75,0,0,0,.1,1.1,5.64,5.64,0,0,0,.1.7,6.58,6.58,0,0,0,1.8,2.4,6,6,0,0,0,2.2,1.2,9.08,9.08,0,0,0,2.3.3,4.65,4.65,0,0,0,2.1-.5c.1.1.2.2.2.3h0a9.4,9.4,0,0,1-3.1.6,6.08,6.08,0,0,1-4.5-1.9,7.49,7.49,0,0,1-1.5-2,3.92,3.92,0,0,1-.4-1.4,10.87,10.87,0,0,1-.1-1.8V42h0c-.1,0-.2.1-.3.1s-.2.1-.3.2-.2.1-.3.1a.76.76,0,0,1-.4-.1V42a1.63,1.63,0,0,1,.6-.3,2.54,2.54,0,0,1,.7-.2V39.4a14.77,14.77,0,0,1,.1-2.1,1.38,1.38,0,0,1,.4-.3,1.09,1.09,0,0,1,.5-.1.35.35,0,0,1,.1.2V38c0,.4-.1.8-.1,1.2s-.1.8-.1,1.2v.9a3.55,3.55,0,0,1,.7-.1c.3-.1.6-.1,1-.2s.7-.1,1-.1.5,0,.6.1A1.87,1.87,0,0,1,282.2,41.4Z" transform="translate(-144.7 -2.77)"/><path class="cls-4" d="M290.5,42.8c-.2.5-.3,1-.5,1.6v.2a13.32,13.32,0,0,0-.5,1.9,12.25,12.25,0,0,0-.2,1.9,13.58,13.58,0,0,1-.3,2.9,14.34,14.34,0,0,1-.7,2.8,5.45,5.45,0,0,1-1,1.7,11.22,11.22,0,0,1-1.6,1.3,6.39,6.39,0,0,1-1.9.8,7.61,7.61,0,0,1-2.1.3,4.55,4.55,0,0,1-2-.5,4.28,4.28,0,0,1-1.6-1.4,5.94,5.94,0,0,1-.4-.8,2.92,2.92,0,0,1-.2-.9,2.77,2.77,0,0,1,.1-.9,1.34,1.34,0,0,1,.6-.7c.1,0,.2-.1.3-.2s.3-.1.4-.1h.4c.1,0,.2.1.3.2s-.1.1-.1.2,0,.1-.1.2a.85.85,0,0,0-.7,0,1.38,1.38,0,0,0-.3.4v.6a1.85,1.85,0,0,0,.2.7,4.19,4.19,0,0,0,.9,1.4,3.92,3.92,0,0,0,1.4.8,4.67,4.67,0,0,0,1.7.3,5.08,5.08,0,0,0,1.7-.3,6,6,0,0,0,1.5-.9,3.81,3.81,0,0,0,1.1-1.6,17.23,17.23,0,0,0,.7-2.1,15.52,15.52,0,0,0,.4-2.1,14.92,14.92,0,0,0,.2-2.1l.3-2.1c-.3.5-.6.9-.8,1.2a5.55,5.55,0,0,1-.6.8,1.76,1.76,0,0,1-.5.4.9.9,0,0,1-.5.1.82.82,0,0,1-.8-.5,5,5,0,0,1-.5-1.3c-.1-.5-.2-1.1-.3-1.7l-.3-1.8q-.15-.9-.3-1.5a1.88,1.88,0,0,0-.4-.9,3.54,3.54,0,0,1,.6-.1h.4a1.78,1.78,0,0,1,.4,1c0,.4.1.8.1,1.1a5.38,5.38,0,0,0,.1,1.1c.1.5.1,1.1.2,1.6a6.58,6.58,0,0,0,.4,1.5q.15.6.6.6a1.8,1.8,0,0,0,.9-.4,2.7,2.7,0,0,0,.7-.8,4.05,4.05,0,0,0,.5-.9c.1-.3.3-.5.3-.6a6.89,6.89,0,0,0,.4-1,7.6,7.6,0,0,1,.4-1.1,5.39,5.39,0,0,0,.3-1,3,3,0,0,0,.2-1h.8a.35.35,0,0,1,.2.1C290.9,41.8,290.6,42.3,290.5,42.8Z" transform="translate(-144.7 -2.77)"/><path class="cls-4" d="M313.7,51.1a5.31,5.31,0,0,1-1.9-.6,8.71,8.71,0,0,1-1.8-1.1,12,12,0,0,1-1.8-2l-2.4-3.7a8.79,8.79,0,0,1-.6-1,5.3,5.3,0,0,1-.6-1,2.07,2.07,0,0,1-.6.2c-.2.1-.4.1-.6.2a1.85,1.85,0,0,0-.7.2c-.3.1-.5.1-.9.2v4.3c0,.4-.1,1.1-.2,1.9h-1.1c.1-.4.2-.8.3-1.4s.1-1.1.1-1.6V39.3a25.28,25.28,0,0,1,.1-2.8c-.2.1-.4.3-.6.3s-.3.2-.4.2-.2.1-.3.2-.2.1-.3.2a.55.55,0,0,0-.2-.5c-.2-.2-.1-.3,0-.3s.2-.1.3-.2a2.19,2.19,0,0,1,.5-.3,2.19,2.19,0,0,0,.5-.3c.2-.1.3-.2.4-.2.3-.2.8-.4,1.3-.7a4.76,4.76,0,0,1,1.8-.5l1.9-.3a3.72,3.72,0,0,1,1.8.2,2.14,2.14,0,0,1,1.2.8,1.91,1.91,0,0,1,.4,1.5,2.2,2.2,0,0,1-.4,1.3,4.7,4.7,0,0,1-.9,1.2,10,10,0,0,1-1.1,1c-.4.3-.8.5-1.1.7-.1,0-.2.1-.3.2s-.2.1-.3.1c.2.3.3.5.5.8a4.05,4.05,0,0,1,.5.9c.1.3.4.6.5.9s.3.5.5.8a24.92,24.92,0,0,0,2.3,3.1,11.6,11.6,0,0,0,1.7,1.6,8.79,8.79,0,0,0,1.3.7l1.1.3A3.87,3.87,0,0,1,313.7,51.1Zm-5.5-15c-.1-.3-.4-.4-.8-.5-.2,0-.4-.1-.6-.1h-.7a1.7,1.7,0,0,0-.7.1,1.27,1.27,0,0,1-.6.1c-.6.1-1.1.2-1.6.3a8.8,8.8,0,0,0-1.5.5c0,.8-.1,1.8-.1,2.8v2.8l1.5-.3a8.8,8.8,0,0,0,1.5-.5,7.46,7.46,0,0,0,1.2-.7l1.2-.9a3.78,3.78,0,0,0,.9-1.2,2.42,2.42,0,0,0,.4-1.3A3.11,3.11,0,0,0,308.2,36.1Z" transform="translate(-144.7 -2.77)"/><path class="cls-4" d="M319.4,48.5h0a1.19,1.19,0,0,1-1.3-.2,7.11,7.11,0,0,1-.4-2c-.1-.7-.2-1.3-.3-2-.3.5-.5,1-.7,1.3a7,7,0,0,1-.8,1l-.6.6a7,7,0,0,1-.9.6,4.05,4.05,0,0,1-.9.5,4.12,4.12,0,0,1-.8.3c-.5,0-.8-.1-1-.5a3.42,3.42,0,0,1-.2-1.5,5.64,5.64,0,0,1,.6-2,8.58,8.58,0,0,1,1.3-2,6.18,6.18,0,0,1,2-1.5,4.34,4.34,0,0,1,2.5-.5.22.22,0,0,1,.2.2,6.15,6.15,0,0,0,.1,1.4,5.9,5.9,0,0,0,.2,1.4c.1.8.2,1.5.3,2.2a17.42,17.42,0,0,0,.5,2.2l.4.1Zm-4.2-6.7a6.39,6.39,0,0,0-1.5,1.3,13,13,0,0,0-1,1.5,5.27,5.27,0,0,0-.5,1.5,2.43,2.43,0,0,0,0,1.2c.1.3.2.5.4.5a1.33,1.33,0,0,0,.7-.3,8.79,8.79,0,0,1,1-.6,8.74,8.74,0,0,0,1-.8c.3-.3.5-.6.7-.8a7.69,7.69,0,0,0,1-2.4,12.13,12.13,0,0,0,.1-1.8A8.39,8.39,0,0,0,315.2,41.8Z" transform="translate(-144.7 -2.77)"/><path class="cls-4" d="M328.4,55.1a3.37,3.37,0,0,1-1.1,1.7,4.72,4.72,0,0,1-2,1,5.43,5.43,0,0,1-2.2,0,7.42,7.42,0,0,1-2.1-.7,14,14,0,0,1-1.8-1.2l-.5-.5-.5-.5a5.58,5.58,0,0,1-.5-.8,2.35,2.35,0,0,1-.2-.8.6.6,0,0,1,.3-.6c.1-.1.2-.1.4-.2a.9.9,0,0,1,.5-.1.6.6,0,0,1,.4.1.52.52,0,0,1,.2.4c0,.3,0,.4-.1.5a.37.37,0,0,1-.3.1h-.3c-.1,0-.1.2,0,.4v.4a2.56,2.56,0,0,0,1,1.3c.5.3,1.1.7,1.7,1a6.47,6.47,0,0,0,2,.4,4.43,4.43,0,0,0,2-.3,3.27,3.27,0,0,0,1.5-1.1,4,4,0,0,0,.7-2,4.66,4.66,0,0,0-.3-2.1,3.81,3.81,0,0,0-1.1-1.4,4.94,4.94,0,0,0-1.8-.8,7.8,7.8,0,0,0-2.2-.3,2,2,0,0,1-.8-.1,5.9,5.9,0,0,1-.8-.4.67.67,0,0,1-.3-.8,2.1,2.1,0,0,1,.6-.8,5.5,5.5,0,0,1,.9-.7c.3-.2.6-.3.7-.4a1.94,1.94,0,0,1-1.4-.9,2.93,2.93,0,0,1-.4-1.6,3.14,3.14,0,0,1,.6-1.6,2.94,2.94,0,0,1,1.6-1,2.2,2.2,0,0,1,.8-.1H325a4.33,4.33,0,0,1,.5.1c.3,0,.5-.2.7-.5a1.64,1.64,0,0,0,.2-1,1.69,1.69,0,0,1,.5.2,1.38,1.38,0,0,1,.4.3v.2a1.09,1.09,0,0,1-.1.5c-.1.2-.1.4-.3.5s-.3.3-.6.4a3.26,3.26,0,0,1,.4,1.4,3.19,3.19,0,0,1-.3,1.4,4.7,4.7,0,0,1-.9,1.2,3.38,3.38,0,0,1-1.6.7l-.4.2a2.51,2.51,0,0,0-.7.4c-.3.2-.5.3-.8.5a1.18,1.18,0,0,0-.5.5c-.1.2-.1.3,0,.4s.3.2.8.2l2.4.3a4,4,0,0,1,2,.7,4.67,4.67,0,0,1,1.4,1.4,5.75,5.75,0,0,1,.6,2.5A7.47,7.47,0,0,1,328.4,55.1Zm-2.9-13.5a1.91,1.91,0,0,0-1-.5,4.87,4.87,0,0,0-1.2.1,2.07,2.07,0,0,0-1,.6,1.94,1.94,0,0,0-.6,1.3,2.13,2.13,0,0,0,.3,1.2,1.83,1.83,0,0,0,1,.7,2.24,2.24,0,0,0,2.4-1.2,2,2,0,0,0,.4-1.3C325.9,42.2,325.7,41.9,325.5,41.6Z" transform="translate(-144.7 -2.77)"/><path class="cls-4" d="M336.9,48.4h0a1.06,1.06,0,0,1-1.2-.2,4.88,4.88,0,0,1-.3-.7,3.55,3.55,0,0,1-.2-1,6,6,0,0,0-.2-1.2c0-.4-.1-.8-.1-1.1-.3.5-.5,1-.7,1.3a7,7,0,0,1-.8,1l-.6.6a7,7,0,0,1-.9.6,4.05,4.05,0,0,1-.9.5,4.12,4.12,0,0,1-.8.3c-.5,0-.8-.1-1-.5a2.1,2.1,0,0,1-.2-1.4,7.67,7.67,0,0,1,.5-1.9,8.17,8.17,0,0,1,1.2-2,6.9,6.9,0,0,1,1.8-1.6,4.54,4.54,0,0,1,2.3-.8V37.1c0-.6.1-1.1.1-1.5a2,2,0,0,1,.3-1.1h1a13.12,13.12,0,0,0-.6,3.1,21.64,21.64,0,0,0,0,3.6v1.7a4.48,4.48,0,0,0,.1,1.1c.1.7.2,1.4.3,1.9s.2,1.2.4,1.9l.6.2Zm-4.2-6.6a6.39,6.39,0,0,0-1.5,1.3,13,13,0,0,0-1,1.5,5.27,5.27,0,0,0-.5,1.5,2.43,2.43,0,0,0,0,1.2c.1.3.2.5.4.5a1.33,1.33,0,0,0,.7-.3,8.79,8.79,0,0,1,1-.6,8.74,8.74,0,0,0,1-.8c.3-.3.5-.6.7-.8a7.69,7.69,0,0,0,1-2.4,12.13,12.13,0,0,0,.1-1.8A8.39,8.39,0,0,0,332.7,41.8Z" transform="translate(-144.7 -2.77)"/><path class="cls-4" d="M345.3,44.4a6.25,6.25,0,0,1-1,2.2,6.07,6.07,0,0,1-1.6,1.6,2.88,2.88,0,0,1-2,.5,1.66,1.66,0,0,1-1.2-.5,3.46,3.46,0,0,1-.7-1.2,2.57,2.57,0,0,1-.1-1.5,9.36,9.36,0,0,1,.4-1.6,6.38,6.38,0,0,1,.8-1.4,4,4,0,0,1,1.2-1,.31.31,0,0,0,.2-.1.76.76,0,0,0,.4-.2c.2,0,.4-.1.7-.1h1.1a2.66,2.66,0,0,1,1.2.3,1.26,1.26,0,0,1,.7,1A4.69,4.69,0,0,1,345.3,44.4ZM342,41.8a4.88,4.88,0,0,0-.7.3,2.19,2.19,0,0,0-.5.3l-.3.3a5.38,5.38,0,0,0-1,2,3.93,3.93,0,0,0,.1,1.9,2,2,0,0,0,1,1.2,2.06,2.06,0,0,0,1.8-.3,6.47,6.47,0,0,0,.9-.8,12.49,12.49,0,0,0,.8-1.2,3.49,3.49,0,0,0,.5-1.3,2.4,2.4,0,0,0,0-1.2,1.35,1.35,0,0,0-.5-.9,1.92,1.92,0,0,0-1.2-.3A1,1,0,0,0,342,41.8Z" transform="translate(-144.7 -2.77)"/><path class="cls-4" d="M349,48.8a1.07,1.07,0,0,1-.6-.2,1.58,1.58,0,0,1-.5-.6,2.9,2.9,0,0,1-.3-1.1c-.1-.9-.2-1.8-.2-2.4s-.1-1.3-.1-1.9V37.1a12.1,12.1,0,0,1,.1-1.9.35.35,0,0,1,.2-.1c.1,0,.1,0,.2-.1h.4c.2,0,.3,0,.3.1a10.87,10.87,0,0,1-.1,1.8c0,.6-.1,1.2-.1,1.8V41a17.7,17.7,0,0,0,.1,2.3v1.8a11.08,11.08,0,0,0,.2,1.9,1.54,1.54,0,0,0,.3.7c.1.1.3.2.4.3h.4c.1,0,.2,0,.2.1v.6A3.87,3.87,0,0,1,349,48.8Z" transform="translate(-144.7 -2.77)"/><path class="cls-4" d="M352.8,48.8a1.07,1.07,0,0,1-.6-.2,1.58,1.58,0,0,1-.5-.6,2.9,2.9,0,0,1-.3-1.1c-.1-.9-.2-1.8-.2-2.4s-.1-1.3-.1-1.9V37.1a12.1,12.1,0,0,1,.1-1.9.35.35,0,0,1,.2-.1c.1,0,.1,0,.2-.1h.4c.2,0,.3,0,.3.1a10.87,10.87,0,0,1-.1,1.8c0,.6-.1,1.2-.1,1.8V41a17.7,17.7,0,0,0,.1,2.3v1.8a11.08,11.08,0,0,0,.2,1.9,1.54,1.54,0,0,0,.3.7c.1.1.3.2.4.3h.4c.1,0,.2,0,.2.1v.6A3.44,3.44,0,0,1,352.8,48.8Z" transform="translate(-144.7 -2.77)"/><path class="cls-4" d="M361.1,47.8a1.76,1.76,0,0,1-.8.9,5.64,5.64,0,0,1-1.2.4,6.6,6.6,0,0,1-1.4-.1,5.78,5.78,0,0,1-1.4-.5,3.78,3.78,0,0,1-1.2-1l-.4-.5a.1.1,0,0,0,.1-.1v-.4h0l.2.2c0,.1.1.1.1.2a2.65,2.65,0,0,0,.6.5,4.35,4.35,0,0,0,.7.4,6.6,6.6,0,0,0,1.1.4,6.88,6.88,0,0,0,1.3.2,1.49,1.49,0,0,0,1-.3q.45-.3.3-1.2c0-.3-.2-.5-.5-.7a8.79,8.79,0,0,0-1-.6,6.12,6.12,0,0,0-1.2-.5,6.72,6.72,0,0,1-1.2-.6,3.59,3.59,0,0,1-1-.7,1.38,1.38,0,0,1-.5-.9c-.1-.5.1-.8.5-1.2a3.61,3.61,0,0,1,1.5-.8,5.84,5.84,0,0,1,1.9-.2,2.46,2.46,0,0,1,1.5.5,1,1,0,0,1-.5.4,2.13,2.13,0,0,0-1.2-.3,3.4,3.4,0,0,0-1.4.2,7.26,7.26,0,0,0-1.2.5c-.3.2-.5.5-.4.7s.2.4.5.6a3.13,3.13,0,0,0,1,.5,11.22,11.22,0,0,1,1.3.5c.5.2.9.4,1.3.6a4.31,4.31,0,0,1,1,.7c.3.3.5.5.5.9A1.24,1.24,0,0,1,361.1,47.8Z" transform="translate(-144.7 -2.77)"/></svg>